<?xml version="1.0" standalone="no"?>
<!DOCTYPE svg PUBLIC "-//W3C//DTD SVG 20010904//EN"
 "http://www.w3.org/TR/2001/REC-SVG-20010904/DTD/svg10.dtd">
<svg version="1.0" xmlns="http://www.w3.org/2000/svg"
 width="1024.000000pt" height="1024.000000pt" viewBox="0 0 1024.000000 1024.000000"
 preserveAspectRatio="xMidYMid meet">
<metadata>
Created by potrace 1.16, written by Peter Selinger 2001-2019
</metadata>
<g transform="translate(0.000000,1024.000000) scale(0.100000,-0.100000)"
fill="#000000" stroke="none">
<path d="M4640 8525 c-649 -90 -1300 -375 -1785 -784 -119 -100 -361 -343
-457 -458 -77 -92 -252 -334 -279 -384 -8 -15 -38 -66 -67 -114 -200 -329
-344 -725 -418 -1151 -23 -128 -27 -187 -31 -424 -6 -301 2 -433 42 -665 109
-647 351 -1152 797 -1670 468 -543 1145 -957 1841 -1125 265 -64 334 -72 697
-77 371 -6 477 3 790 68 606 126 1282 505 1753 984 166 169 354 398 413 505
10 19 33 53 50 76 150 202 329 618 418 973 75 298 100 506 99 841 0 417 -54
736 -188 1105 -306 844 -951 1558 -1770 1960 -355 175 -635 266 -1004 327
-167 27 -734 35 -901 13z m870 -239 c569 -98 1053 -318 1552 -706 116 -90 427
-404 524 -530 359 -464 555 -897 656 -1450 21 -115 23 -154 23 -480 0 -399 -6
-451 -86 -773 -106 -423 -262 -754 -514 -1093 -320 -431 -714 -761 -1207
-1014 -358 -183 -683 -288 -1043 -335 -801 -105 -1668 160 -2394 732 -115 91
-342 317 -464 463 -122 145 -308 427 -394 595 -152 300 -246 605 -308 1005
-22 141 -31 552 -16 700 38 364 139 725 290 1035 320 661 900 1245 1547 1560
363 176 675 268 1084 319 19 2 163 3 320 1 249 -3 303 -7 430 -29z"/>
<path d="M5137 8043 c-2 -5 -7 -25 -11 -45 -9 -49 -64 -108 -102 -109 -82 -3
-100 4 -175 78 l-56 55 -8 -59 c-4 -32 -13 -70 -21 -84 -16 -31 -65 -75 -95
-84 -38 -12 -108 5 -160 41 -28 19 -53 34 -55 34 -2 0 -4 -42 -4 -94 0 -88 -2
-97 -37 -167 -34 -67 -43 -77 -93 -102 -51 -26 -62 -28 -137 -24 -48 3 -83 1
-83 -5 0 -5 10 -28 22 -51 13 -27 23 -67 25 -112 4 -60 1 -76 -19 -115 -32
-59 -94 -98 -181 -112 l-67 -11 54 -56 c70 -74 96 -126 96 -192 0 -89 -46
-151 -132 -179 -21 -6 -38 -17 -38 -24 0 -6 20 -28 44 -49 58 -48 101 -133 93
-186 -15 -115 -134 -165 -392 -164 -196 0 -338 36 -450 113 -24 16 -48 30 -53
30 -5 0 -36 -16 -68 -35 -131 -79 -254 -108 -464 -109 -131 -1 -168 3 -237 22
-45 12 -85 22 -88 22 -6 0 -33 -63 -41 -96 -5 -21 2 -25 78 -50 79 -27 92 -28
283 -29 181 0 208 2 283 24 45 13 121 42 167 66 l85 42 88 -43 c143 -72 216
-87 427 -88 169 0 185 1 265 27 148 48 338 94 543 131 109 20 208 36 221 36
21 0 44 -40 94 -162 2 -4 -6 -8 -18 -8 -27 0 -622 -119 -628 -125 -3 -3 24
-47 59 -100 45 -67 70 -95 84 -95 11 0 154 23 318 52 341 59 296 66 367 -55
26 -45 35 -69 27 -72 -6 -2 -57 -11 -112 -20 -138 -22 -546 -95 -568 -102 -13
-3 -17 -11 -14 -26 4 -17 57 -171 64 -185 0 -2 144 19 320 47 407 64 393 62
398 37 2 -12 11 -54 21 -94 9 -40 14 -76 10 -79 -3 -3 -106 -19 -229 -34 -252
-31 -468 -67 -480 -78 -4 -4 -3 -30 3 -57 5 -27 12 -74 15 -104 l6 -56 152 23
c182 27 488 63 538 63 l35 0 -8 -72 c-5 -40 -11 -87 -14 -104 l-4 -31 -158
-12 c-204 -15 -521 -55 -531 -67 -5 -5 -11 -53 -14 -106 l-5 -98 36 0 c20 0
153 12 294 26 142 15 269 23 283 20 14 -4 45 -24 69 -46 l42 -39 55 15 c36 11
118 18 251 21 181 5 206 4 295 -17 54 -12 142 -38 196 -57 76 -26 102 -31 113
-23 19 16 70 154 96 258 19 76 22 115 23 302 0 238 -10 298 -80 481 -120 313
-283 496 -830 930 -340 271 -440 389 -517 610 -31 90 -33 101 -33 244 0 139 2
156 29 233 31 92 67 144 86 126 6 -6 20 -94 31 -195 23 -220 46 -315 98 -423
84 -173 230 -296 406 -341 122 -32 312 -18 490 36 50 15 108 22 205 26 148 5
178 -1 438 -82 126 -39 189 -44 271 -19 63 18 136 81 162 139 24 52 26 143 3
152 -9 3 -55 -1 -103 -11 -153 -29 -281 -15 -438 49 -174 70 -265 151 -457
408 -149 199 -254 299 -519 496 -119 88 -219 161 -222 161 -2 0 -6 -3 -8 -7z
m499 -799 c28 -29 34 -43 34 -81 0 -38 -5 -50 -34 -79 -29 -29 -41 -34 -81
-34 -39 0 -52 5 -75 30 -43 47 -51 80 -30 127 23 52 54 73 109 73 37 0 49 -5
77 -36z"/>
<path d="M6936 6334 c-106 -72 -254 -107 -456 -108 -167 0 -256 16 -382 70
-44 19 -84 34 -89 34 -5 0 -34 -19 -64 -42 -53 -41 -56 -45 -50 -78 9 -50 18
-55 62 -31 l38 22 75 -35 c133 -61 182 -70 400 -70 222 -1 280 11 441 85 l87
41 83 -40 c46 -22 105 -47 130 -55 79 -27 215 -40 368 -35 126 4 158 9 229 33
58 19 82 32 82 44 0 20 -37 101 -45 101 -4 0 -43 -10 -88 -22 -71 -20 -105
-23 -252 -22 -155 1 -178 3 -260 28 -49 15 -123 45 -163 67 -41 21 -81 39 -90
39 -10 0 -35 -12 -56 -26z"/>
<path d="M3058 5979 c-36 -27 -157 -76 -253 -102 -71 -19 -104 -22 -280 -21
-184 0 -208 2 -299 27 -76 20 -102 24 -107 15 -15 -25 -21 -89 -9 -103 6 -7
62 -26 123 -42 106 -26 124 -28 322 -28 l210 1 111 37 c61 20 138 54 171 76
l59 38 46 -23 46 -23 71 23 c40 13 75 26 78 30 10 10 -7 21 -62 41 -27 10 -76
31 -107 46 -68 34 -84 35 -120 8z"/>
<path d="M6975 5980 c-12 -19 -124 -70 -212 -96 -180 -52 -455 -43 -628 21
-49 19 -91 33 -93 31 -9 -9 88 -153 111 -164 65 -31 172 -46 342 -47 156 0
178 2 270 28 55 15 132 44 172 64 l72 36 91 -42 c142 -66 218 -82 415 -88 129
-4 192 -1 260 10 102 18 221 53 230 67 6 10 -10 77 -24 99 -7 11 -18 10 -66
-4 -285 -82 -675 -51 -857 70 -39 26 -72 32 -83 15z"/>
<path d="M3390 5590 c0 -5 32 -45 71 -87 91 -100 148 -186 209 -317 96 -202
127 -371 117 -631 -6 -168 -22 -254 -97 -535 -108 -407 -122 -576 -71 -856
102 -555 505 -970 1030 -1059 283 -48 605 -46 864 6 295 59 515 174 698 366
120 126 203 275 265 478 27 87 28 98 28 310 0 212 -1 223 -27 308 -115 371
-388 640 -763 753 -74 22 -115 27 -239 31 -168 6 -260 -5 -374 -43 -282 -95
-515 -294 -641 -549 -66 -133 -91 -231 -97 -380 -11 -266 86 -510 271 -681 88
-83 160 -127 269 -167 79 -29 89 -31 252 -31 154 -1 177 1 240 23 123 41 221
99 305 178 142 133 209 275 217 458 9 180 -45 323 -167 446 -221 221 -573 207
-752 -29 -68 -89 -92 -173 -86 -300 3 -84 8 -106 36 -164 41 -84 118 -157 192
-181 32 -10 85 -17 135 -17 71 0 90 4 136 28 70 36 119 99 119 153 0 21 -1 39
-2 39 -2 0 -30 -14 -62 -30 -132 -67 -279 -22 -330 102 -44 105 7 222 128 293
61 36 191 38 256 5 67 -33 106 -65 140 -115 163 -237 27 -574 -269 -665 -121
-38 -297 -19 -401 43 -76 45 -190 141 -210 175 -132 235 -144 444 -38 662 34
71 58 101 137 180 146 146 278 208 461 217 184 10 305 -23 457 -123 199 -131
323 -335 343 -564 20 -237 -27 -429 -150 -610 -145 -213 -398 -372 -678 -426
-101 -19 -369 -19 -462 1 -374 79 -681 315 -846 650 -75 153 -104 272 -111
450 -9 243 10 335 152 727 128 349 136 382 142 554 7 173 -8 252 -71 381 -120
247 -324 421 -609 522 -94 33 -117 37 -117 21z"/>
<path d="M2040 5425 l0 -45 647 0 647 0 -44 45 -44 45 -603 0 -603 0 0 -45z"/>
<path d="M6290 5448 c0 -13 3 -33 6 -45 l6 -23 885 0 884 0 -3 43 -3 42 -887
3 -888 2 0 -22z"/>
<path d="M2030 5100 l0 -40 740 0 c407 0 740 2 740 5 0 2 -8 20 -17 40 l-17
35 -723 0 -723 0 0 -40z"/>
<path d="M6350 5100 l0 -40 865 0 865 0 0 40 0 40 -865 0 -865 0 0 -40z"/>
<path d="M2044 4806 c-3 -8 -4 -27 -2 -43 l3 -28 660 -3 c363 -2 711 0 773 3
109 7 112 8 112 30 0 59 58 55 -776 55 -650 0 -765 -2 -770 -14z"/>
<path d="M6337 4813 c-3 -5 -8 -22 -11 -39 l-7 -31 53 -6 c70 -9 1430 -9 1576
0 l112 6 0 39 0 38 -859 0 c-473 0 -862 -3 -864 -7z"/>
<path d="M2131 4513 l-43 -4 6 -39 c3 -21 10 -50 16 -64 l10 -26 724 0 c651 0
724 2 730 16 3 9 6 40 6 70 l0 54 -702 -2 c-387 -1 -723 -3 -747 -5z"/>
<path d="M6714 4513 l-461 -3 -23 -53 c-12 -28 -24 -58 -27 -64 -4 -10 178
-13 889 -13 l894 0 17 64 c9 35 17 67 17 70 0 3 -190 5 -422 4 -233 -2 -631
-4 -884 -5z"/>
<path d="M4735 4403 c-16 -2 -111 -13 -210 -24 -99 -12 -185 -26 -192 -33 -16
-16 -172 -495 -195 -601 -24 -114 -37 -442 -19 -525 21 -101 54 -201 65 -197
23 7 102 141 124 210 12 39 27 118 33 174 13 135 40 239 89 341 104 219 260
386 485 522 47 28 84 57 82 63 -2 7 -25 27 -51 45 -43 29 -55 32 -115 31 -36
-1 -79 -4 -96 -6z"/>
<path d="M2180 4173 c0 -10 12 -48 26 -85 l26 -68 626 2 626 3 18 70 c10 39
16 76 13 83 -3 9 -146 12 -670 12 -624 0 -665 -1 -665 -17z"/>
<path d="M6350 4183 c0 -5 25 -45 56 -90 l57 -83 661 1 c364 0 681 4 705 7
l44 7 24 69 c12 39 23 76 23 83 0 11 -146 13 -785 13 -432 0 -785 -3 -785 -7z"/>
<path d="M2351 3738 c27 -46 49 -86 49 -90 0 -5 227 -8 505 -8 l504 0 5 33 c3
17 7 57 8 87 l3 55 -562 3 -561 2 49 -82z"/>
<path d="M6604 3802 c3 -9 19 -49 35 -87 l30 -70 513 0 512 0 44 78 c24 42 40
82 37 87 -4 6 -213 10 -591 10 -553 0 -585 -1 -580 -18z"/>
<path d="M2537 3442 c-3 -4 25 -46 61 -94 l67 -88 372 0 373 0 -5 28 c-2 15
-7 57 -10 95 l-7 67 -423 0 c-233 0 -426 -3 -428 -8z"/>
<path d="M6711 3383 c5 -38 8 -80 8 -95 l1 -28 359 0 360 0 60 84 c34 46 61
89 61 95 0 8 -125 11 -428 11 l-428 0 7 -67z"/>
<path d="M3008 3073 c-76 -2 -138 -7 -138 -11 0 -4 39 -46 88 -93 l87 -86 215
10 c118 5 216 11 218 12 2 2 -9 42 -24 89 l-26 86 -142 -2 c-77 -1 -203 -4
-278 -5z"/>
<path d="M6686 2995 c-10 -47 -17 -87 -15 -89 2 -3 93 -8 202 -12 l199 -7 84
84 c46 46 84 89 84 96 0 10 -58 13 -268 13 l-267 0 -19 -85z"/>
<path d="M3270 2699 c89 -73 409 -263 434 -257 13 2 5 19 -34 78 -28 41 -67
103 -87 138 l-37 62 -151 0 -150 0 25 -21z"/>
<path d="M6536 2598 c-42 -68 -71 -125 -66 -126 18 -6 281 156 370 227 l25 21
-126 0 -127 0 -76 -122z"/>
</g>
</svg>
